<?xml version="1.0" standalone="no"?>
<!DOCTYPE svg PUBLIC "-//W3C//DTD SVG 20010904//EN"
 "http://www.w3.org/TR/2001/REC-SVG-20010904/DTD/svg10.dtd">
<svg version="1.0" xmlns="http://www.w3.org/2000/svg"
 width="283.000000pt" height="178.000000pt" viewBox="0 0 283.000000 178.000000"
 preserveAspectRatio="xMidYMid meet">

<g transform="translate(0.000000,178.000000) scale(0.100000,-0.100000)"
fill="#000000" stroke="none">
<path d="M0 890 l0 -890 1415 0 1415 0 0 890 0 890 -1415 0 -1415 0 0 -890z
m1985 812 l80 -47 0 -400 0 -399 -147 -84 -146 -83 -119 67 c-65 37 -130 76
-145 86 l-28 19 0 169 0 169 28 19 c15 10 81 49 146 86 l119 68 37 -21 c21
-12 43 -21 49 -21 8 0 11 62 11 210 0 193 1 210 18 210 9 0 53 -21 97 -48z
m-1510 -405 c66 -38 128 -76 138 -85 15 -13 17 -38 17 -224 0 -175 -2 -210
-15 -214 -8 -3 -53 15 -100 42 l-84 47 -3 115 -3 115 -48 30 -48 29 -47 -29
-47 -29 -5 -114 -5 -115 -80 -47 c-44 -27 -88 -48 -97 -48 -17 0 -18 17 -18
213 0 116 4 217 8 223 15 23 286 172 301 166 9 -3 70 -37 136 -75z m2174 -9
l141 -82 0 -57 0 -57 -91 -52 c-51 -29 -94 -49 -99 -44 -5 5 -10 29 -12 54 -3
42 -6 47 -49 69 l-47 25 -46 -24 -46 -25 0 -60 0 -60 140 -80 c77 -43 140 -83
140 -87 0 -9 -30 -28 -122 -77 l-64 -34 -147 82 -147 83 0 168 c0 141 3 170
16 181 26 21 268 159 280 159 6 0 75 -37 153 -82z m-1457 1 c67 -39 127 -74
132 -79 5 -5 -7 -37 -29 -75 l-37 -66 -39 55 c-22 31 -41 56 -42 56 -1 0 -1
-87 1 -192 2 -122 7 -194 14 -197 5 -2 -23 -23 -63 -47 -40 -24 -74 -42 -75
-41 -1 1 -65 116 -142 255 l-141 252 97 56 c53 31 111 65 127 75 17 10 40 19
52 19 11 0 77 -32 145 -71z m1358 -252 c0 -24 -7 -36 -26 -48 -25 -15 -29 -15
-55 0 -40 22 -40 69 -2 93 24 14 30 15 55 2 22 -11 28 -22 28 -47z m-1749 -32
l29 -16 -25 -47 c-44 -84 -45 -84 -44 13 0 50 3 84 6 77 3 -7 18 -19 34 -27z
m750 -343 l134 -78 3 -175 2 -176 -141 -82 c-77 -44 -145 -81 -151 -81 -16 0
-108 52 -108 61 0 16 36 15 72 -3 l37 -18 128 74 128 74 0 148 0 149 -85 50
c-47 28 -105 62 -129 76 l-43 24 -62 -34 c-33 -18 -91 -51 -128 -72 l-68 -40
0 -152 0 -152 43 -24 c79 -43 82 -39 85 142 2 149 4 157 22 157 19 0 20 -7 20
-163 0 -151 -2 -165 -20 -182 -27 -24 -87 -15 -142 22 l-43 29 0 174 0 174
135 78 c74 43 145 78 156 78 12 0 82 -35 155 -78z m249 -92 c0 -13 -5 -18 -15
-14 -11 5 -12 9 -2 20 16 18 17 17 17 -6z m-278 -40 c37 -11 58 -34 58 -64 0
-9 -9 -16 -20 -16 -11 0 -20 4 -20 9 0 35 -99 58 -128 29 -11 -11 -17 -48 -8
-48 26 0 162 -32 172 -41 8 -6 14 -29 14 -50 0 -34 -5 -42 -32 -59 -68 -41
-194 -16 -209 43 -6 23 -4 27 14 27 13 0 26 -9 32 -22 8 -20 19 -23 68 -26 62
-3 87 8 87 39 0 19 -51 39 -103 39 -74 0 -117 58 -80 108 30 40 85 51 155 32z"/>
<path d="M1716 1110 l-47 -30 3 -52 c3 -50 5 -53 50 -81 l47 -29 50 28 51 27
0 58 0 57 -46 26 c-26 14 -50 26 -53 26 -4 0 -28 -14 -55 -30z"/>
</g>
</svg>
