<svg xmlns="http://www.w3.org/2000/svg" width="120" height="60"><rect id="backgroundrect" width="100%" height="100%" x="0" y="0" fill="none" stroke="none"/><g class="currentLayer" style=""><title>Layer 1</title><path d="M16.147 5.154l1.09 2.05a6.15 6.15 0 0 0 .824 1.024c.913.913 1.782 1.87 2.56 2.895 1.848 2.427 3.095 5.122 3.986 8.04.534 1.782.824 3.608.846 5.456.09 5.523-1.804 10.266-5.634 14.208a16.3 16.3 0 0 1-2.004 1.715c-.38 0-.557-.3-.713-.557-.3-.5-.468-1.047-.557-1.603-.134-.668-.223-1.336-.178-2.027v-.312c-.022-.067-.356-30.732-.223-30.888z" fill="#599636" id="svg_1"/><path d="M16.147 5.088c-.045-.09-.09-.022-.134.022.022.445-.134.846-.38 1.225-.267.38-.624.668-.98.98-1.982 1.715-3.54 3.786-4.788 6.102-1.648 3.118-2.516 6.458-2.76 9.977-.11 1.27.4 5.746.802 7.037 1.09 3.43 3.05 6.302 5.6 8.796.624.6 1.292 1.158 1.982 1.692.2 0 .223-.178.267-.312a6.11 6.11 0 0 0 .2-.869c.2-1.113.312-2.227.445-3.34l-.245-31.31z" fill="#6cac48" id="svg_2"/><path d="M17.24 41.9c.045-.512.3-.935.557-1.358-.267-.11-.468-.334-.624-.58-.134-.223-.245-.5-.334-.735-.312-.935-.38-1.915-.468-2.873v-.58c-.11.09-.134.846-.134.958-.067 1.024-.2 2.027-.4 3.006-.067.4-.11.802-.356 1.158 0 .045 0 .09.022.156.4 1.18.512 2.383.58 3.608v.445c0 .534-.022.423.423.6.178.067.38.09.557.223.134 0 .156-.11.156-.2l-.067-.735v-2.05c-.022-.356.045-.713.09-1.047z" fill="#c2bfbf" id="svg_3"/><g id="svg_4" class="" fill-opacity="1" fill="#d5d5d5"><path d="M34.150742519999994,32.58635528 v2.1208745479999997 a1.4806297999999998,1.4806297999999998 0 0 0 0.014295736000000002,0.251196504 c0.027570348000000005,0.251196504 0.181760072,0.40436510400000003 0.40844959999999997,0.47482266 a5.074986279999999,5.074986279999999 0 0 0 0.64330812,0.125598252 c0.125598252,0.014295736000000002 0.16746433600000002,0.06943643200000002 0.181760072,0.20422479999999998 c0.014295736000000002,0.47482266 -0.027570348000000005,0.53098448 -0.488097272,0.502393008 c-1.074222448,-0.05616182 -2.1494660199999998,-0.06943643200000002 -3.2236884679999998,0 h-0.10211239999999999 c-0.33492867200000004,0.014295736000000002 -0.36249902,-0.014295736000000002 -0.36249902,-0.34922440800000004 c0,-0.05616182 0.014295736000000002,-0.125598252 0.014295736000000002,-0.181760072 c0,-0.10211239999999999 0.06943643200000002,-0.15316860000000002 0.16746433600000002,-0.15316860000000002 c0.22464728,-0.027570348000000005 0.43295657600000004,-0.08373216800000001 0.64330812,-0.125598252 c0.293062588,-0.06943643200000002 0.45950579999999996,-0.251196504 0.488097272,-0.544259092 c0.04084496000000001,-0.32063293600000004 0.04084496000000001,-0.6555616080000001 0.04084496000000001,-0.977215668 l0.014295736000000002,-3.7393560879999996 a0.57182944,0.57182944 0 0 0 -0.30633720000000003,-0.53098448 a3.9721723599999996,3.9721723599999996 0 0 0 -0.7964767199999999,-0.33492867200000004 c-0.08373216800000001,-0.027570348000000005 -0.16746433600000002,-0.04084496000000001 -0.23690076799999998,-0.08373216800000001 c-0.20422479999999998,-0.09802790400000003 -0.20933042,-0.278766852 -0.014295736000000002,-0.391090492 c0.06943643200000002,-0.04084496000000001 0.15316860000000002,-0.06943643200000002 0.23690076799999998,-0.08373216800000001 a12.682360079999999,12.682360079999999 0 0 0 2.4833735679999998,-0.62799126 c0.16746433600000002,-0.05616182 0.20933042,-0.04084496000000001 0.22464728,0.125598252 c0.014295736000000002,0.10211239999999999 0,0.22464728 -0.014295736000000002,0.32063293600000004 c-0.027570348000000005,0.181760072 -0.027570348000000005,0.36249902 -0.027570348000000005,0.53098448 c0,0.06943643200000002 0.014295736000000002,0.139893988 0.08373216800000001,0.181760072 s0.139893988,0 0.20422479999999998,-0.04084496000000001 c0.293062588,-0.22464728 0.586125176,-0.43295657600000004 0.906758112,-0.6126744000000001 c0.45950579999999996,-0.251196504 0.94964532,-0.47482266 1.4806297999999998,-0.544259092 c0.64330812,-0.08373216800000001 1.1998206999999999,0.08373216800000001 1.688939096,0.502393008 a3.1654844,3.1654844 0 0 1 0.529963356,0.613695524 c0.139893988,0.20422479999999998 0.15316860000000002,0.20933042 0.33492867200000004,0.06943643200000002 c0.53098448,-0.391090492 1.088518184,-0.739293776 1.688939096,-0.99049028 c0.62799126,-0.26549224 1.2702782559999999,-0.30633720000000003 1.911544128,-0.08373216800000001 c0.6555616080000001,0.23690076799999998 1.10281392,0.6974276920000001 1.36830616,1.325418952 c0.22464728,0.502393008 0.32063293600000004,1.021124 0.32063293600000004,1.5623197199999999 v3.7393560879999996 c0,0.251196504 0.10211239999999999,0.40844959999999997 0.34922440800000004,0.53098448 c0.26549224,0.10211239999999999 0.558554828,0.15316860000000002 0.83732168,0.20933042 c0.181760072,0.04084496000000001 0.181760072,0.04084496000000001 0.181760072,0.22464728 c-0.027570348000000005,0.45950579999999996 -0.06943643200000002,0.488097272 -0.516688744,0.45950579999999996 a30.041468079999998,30.041468079999998 0 0 0 -3.362561332,0 c-0.22464728,0.014295736000000002 -0.22464728,0.014295736000000002 -0.23690076799999998,-0.20933042 v-0.06943643200000002 c-0.014295736000000002,-0.37781588000000005 -0.014295736000000002,-0.37781588000000005 0.34922440800000004,-0.45950579999999996 l0.36249902,-0.09802790400000003 a0.5616182,0.5616182 0 0 0 0.43295657600000004,-0.544259092 l0.04084496000000001,-1.0466520999999998 l-0.027570348000000005,-2.734570072 a2.1749941199999996,2.1749941199999996 0 0 0 -0.15316860000000002,-0.7117234280000001 c-0.34922440800000004,-0.851617416 -1.1160885319999998,-1.1579546159999998 -1.856403432,-1.074222448 c-0.558554828,0.05616182 -1.0466520999999998,0.278766852 -1.5071790239999998,0.600420912 c-0.09802790400000003,0.06943643200000002 -0.16746433600000002,0.15316860000000002 -0.15316860000000002,0.293062588 c0.125598252,0.8934835000000001 0.04084496000000001,1.7869669999999998 0.05616182,2.679429376 v1.9401355999999998 c0,0.34922440800000004 0.139893988,0.516688744 0.47482266,0.600420912 l0.64330812,0.139893988 c0.09802790400000003,0.014295736000000002 0.15316860000000002,0.05616182 0.15316860000000002,0.16746433600000002 v0.10211239999999999 c-0.014295736000000002,0.391090492 -0.04084496000000001,0.40844959999999997 -0.43295657600000004,0.40436510400000003 c-1.1160885319999998,-0.05616182 -2.233198188,-0.04084496000000001 -3.3349909839999996,0 c-0.37781588000000005,0.014295736000000002 -0.40844959999999997,-0.027570348000000005 -0.391090492,-0.40844959999999997 c0.014295736000000002,-0.22464728 0.04084496000000001,-0.23690076799999998 0.251196504,-0.278766852 l0.45950579999999996,-0.08373216800000001 c0.40844959999999997,-0.08373216800000001 0.558554828,-0.23690076799999998 0.586125176,-0.6698573440000001 l0.04084496000000001,-0.935349584 l-0.027570348000000005,-2.8050276279999995 c-0.027570348000000005,-0.34922440800000004 -0.10211239999999999,-0.6841530800000001 -0.293062588,-1.004786016 c-0.278766852,-0.516688744 -0.7147868,-0.78115986 -1.3121443400000001,-0.8097513319999999 c-0.600420912,-0.04084496000000001 -1.1303842679999998,0.181760072 -1.6337983999999999,0.45950579999999996 c-0.34922440800000004,0.20422479999999998 -0.502393008,0.446231188 -0.47482266,0.851617416 v2.03714238 zm26.290879628,0.08475329200000001 v1.9677059479999999 a4.21724212,4.21724212 0 0 0 0.027570348000000005,0.41866084 a0.42887208,0.42887208 0 0 0 0.33492867200000004,0.391090492 a3.25738556,3.25738556 0 0 0 0.739293776,0.125598252 c0.139893988,0.014295736000000002 0.16746433600000002,0.06943643200000002 0.181760072,0.181760072 v0.09802790400000003 c-0.014295736000000002,0.488097272 -0.06943643200000002,0.544259092 -0.544259092,0.516688744 c-1.06196896,-0.06943643200000002 -2.1208745479999997,-0.05616182 -3.1818223839999997,0 l-0.40844959999999997,0.014295736000000002 c-0.08373216800000001,0 -0.10211239999999999,-0.04084496000000001 -0.125598252,-0.09802790400000003 a1.41936236,1.41936236 0 0 1 0,-0.586125176 c0.014295736000000002,-0.08373216800000001 0.06943643200000002,-0.10211239999999999 0.15316860000000002,-0.125598252 c0.20422479999999998,-0.027570348000000005 0.37781588000000005,-0.06943643200000002 0.57182944,-0.10211239999999999 c0.34922440800000004,-0.08373216800000001 0.47482266,-0.22464728 0.488097272,-0.586125176 l0.04084496000000001,-1.172250352 v-3.433018888 c0,-0.251196504 -0.09802790400000003,-0.40436510400000003 -0.32063293600000004,-0.516688744 c-0.251196504,-0.139893988 -0.516688744,-0.23690076799999998 -0.7964767199999999,-0.33492867200000004 c-0.08373216800000001,-0.027570348000000005 -0.16746433600000002,-0.05616182 -0.23690076799999998,-0.09802790400000003 c-0.181760072,-0.125598252 -0.20422479999999998,-0.30633720000000003 -0.027570348000000005,-0.446231188 a0.50035076,0.50035076 0 0 1 0.278766852,-0.11232364 c0.8934835000000001,-0.139893988 1.7583755279999997,-0.33492867200000004 2.595697208,-0.6698573440000001 c0.09802790400000003,-0.04084496000000001 0.139893988,-0.014295736000000002 0.181760072,0.06943643200000002 s0.05616182,0.181760072 0.04084496000000001,0.278766852 l-0.04084496000000001,0.6555616080000001 c0,0.08373216800000001 -0.04084496000000001,0.20422479999999998 0.027570348000000005,0.23690076799999998 c0.08373216800000001,0.05616182 0.139893988,-0.06943643200000002 0.20933042,-0.10211239999999999 a6.2186451599999994,6.2186451599999994 0 0 1 1.354010424,-0.864892028 c0.43295657600000004,-0.20422479999999998 0.87816664,-0.33492867200000004 1.381580772,-0.30633720000000003 c0.935349584,0.05616182 1.6052069279999999,0.53098448 2.03714238,1.354010424 c0.22464728,0.43295657600000004 0.32063293600000004,0.906758112 0.36249902,1.395876508 l0.04084496000000001,1.021124 l0.014295736000000002,3.08379448 c0.014295736000000002,0.23690076799999998 0.09802790400000003,0.391090492 0.33492867200000004,0.47482266 a4.564424279999999,4.564424279999999 0 0 0 0.753589512,0.181760072 c0.22464728,0.027570348000000005 0.23690076799999998,0.06943643200000002 0.251196504,0.278766852 v0.06943643200000002 c-0.027570348000000005,0.47482266 -0.05616182,0.488097272 -0.53098448,0.45950579999999996 a29.19393516,29.19393516 0 0 0 -3.125660564,0 c-0.139893988,0.014295736000000002 -0.278766852,0 -0.40844959999999997,0.014295736000000002 c-0.08373216800000001,0 -0.139893988,-0.014295736000000002 -0.15316860000000002,-0.09802790400000003 c-0.027570348000000005,-0.181760072 -0.05616182,-0.36249902 -0.014295736000000002,-0.558554828 c0.014295736000000002,-0.08373216800000001 0.05616182,-0.125598252 0.15316860000000002,-0.139893988 l0.64330812,-0.10211239999999999 c0.22464728,-0.05616182 0.34922440800000004,-0.20422479999999998 0.37781588000000005,-0.40844959999999997 l0.027570348000000005,-0.391090492 l-0.014295736000000002,-2.916330144 c0,-0.33492867200000004 -0.014295736000000002,-0.6698573440000001 -0.08373216800000001,-1.004786016 c-0.16746433600000002,-0.7147868 -0.7117234280000001,-1.2253488 -1.4499960799999998,-1.29682748 c-0.64330812,-0.06943643200000002 -1.2253488,0.09802790400000003 -1.7583755279999997,0.446231188 c-0.26549224,0.16746433600000002 -0.37781588000000005,0.40436510400000003 -0.37781588000000005,0.6974276920000001 v2.1075999359999997 c0,-0.04084496000000001 0,-0.04084496000000001 0.014295736000000002,-0.04084496000000001 z" fill="#d5d5d5" stroke-width="0" id="svg_5"/><path d="M101.31313137199999,28.721400939999995 c-0.15316860000000002,-1.019081752 -0.53098448,-1.925839864 -1.1865460879999998,-2.72129546 a5.381323479999999,5.381323479999999 0 0 0 -2.1494660199999998,-1.5909111919999999 c-0.87816664,-0.36249902 -1.814537348,-0.47482266 -2.763161544,-0.502393008 c-0.391090492,-0.014295736000000002 -5.721357771999999,0.06943643200000002 -6.112448263999999,0 c-0.09802790400000003,-0.014295736000000002 -0.16746433600000002,0.014295736000000002 -0.22464728,0.09802790400000003 c-0.06943643200000002,0.10211239999999999 -0.139893988,0.20933042 -0.181760072,0.32063293600000004 c-0.16746433600000002,0.37781588000000005 -0.16746433600000002,0.34922440800000004 0.23690076799999998,0.40436510400000003 c0.33492867200000004,0.05616182 0.6555616080000001,0.08373216800000001 0.977215668,0.181760072 c0.293062588,0.09802790400000003 0.502393008,0.26549224 0.57182944,0.586125176 c0.027570348000000005,0.15316860000000002 0.05616182,5.06477504 0.05616182,7.354135047999999 l-0.05616182,1.6337983999999999 c-0.014295736000000002,0.125598252 -0.027570348000000005,0.251196504 -0.06943643200000002,0.36249902 c-0.05616182,0.16746433600000002 -0.15316860000000002,0.30633720000000003 -0.32063293600000004,0.37781588000000005 a1.65422088,1.65422088 0 0 1 -0.586125176,0.15316860000000002 c-0.37781588000000005,0.04084496000000001 -0.43295657600000004,0.05616182 -0.558554828,0.47482266 l-0.04084496000000001,0.15316860000000002 c-0.027570348000000005,0.181760072 -0.014295736000000002,0.20933042 0.16746433600000002,0.20933042 l4.172312664,0.04084496000000001 l1.6337983999999999,-0.027570348000000005 l1.1303842679999998,-0.139893988 c1.2835528680000001,-0.23690076799999998 2.4282328719999997,-0.767885248 3.404427416,-1.6184815399999999 a5.667238199999999,5.667238199999999 0 0 0 1.339714688,-1.7583755279999997 c0.391090492,-0.78115986 0.558554828,-1.6337983999999999 0.600420912,-2.497669304 c0.06943643200000002,-0.488097272 0.04084496000000001,-0.99049028 -0.04084496000000001,-1.4928832879999998 zm-2.0238677679999997,1.98098056 c-0.05616182,0.8934835000000001 -0.23690076799999998,1.7583755279999997 -0.6974276920000001,2.539535388 c-0.586125176,1.019081752 -1.423446856,1.7308051800000002 -2.581401472,1.98098056 c-0.502393008,0.10211239999999999 -1.004786016,0.15316860000000002 -1.5316859999999999,0.08373216800000001 c-0.37781588000000005,-0.04084496000000001 -0.739293776,-0.08373216800000001 -1.088518184,-0.20933042 c-0.62799126,-0.22464728 -0.851617416,-0.6126744000000001 -0.864892028,-1.2253488 l-0.014295736000000002,-8.41406176 c0,-0.502393008 0.22464728,-0.6126744000000001 0.586125176,-0.62799126 c0.544259092,-0.04084496000000001 1.10281392,-0.027570348000000005 1.647073012,0.027570348000000005 a6.1880114399999995,6.1880114399999995 0 0 1 1.688939096,0.40844959999999997 a4.06407352,4.06407352 0 0 1 1.10281392,0.6841530800000001 c0.753589512,0.64330812 1.2559825199999999,1.4499960799999998 1.5316859999999999,2.3996413999999997 c0.22464728,0.767885248 0.26549224,1.5490451079999998 0.22464728,2.330204968 zm13.621794159999999,1.36830616 c0,-0.08373216800000001 0,-0.15316860000000002 -0.014295736000000002,-0.23690076799999998 c-0.125598252,-0.767885248 -0.53098448,-1.354010424 -1.1579546159999998,-1.800241612 c-0.40436510400000003,-0.293062588 -0.864892028,-0.488097272 -1.339714688,-0.62799126 c-0.08373216800000001,-0.027570348000000005 -0.15316860000000002,-0.05616182 -0.23690076799999998,-0.06943643200000002 c0.014295736000000002,-0.06943643200000002 0.05616182,-0.08373216800000001 0.09802790400000003,-0.09802790400000003 c0.278766852,-0.139893988 0.544259092,-0.293062588 0.78115986,-0.502393008 c0.43295657600000004,-0.36249902 0.7147868,-0.8097513319999999 0.864892028,-1.354010424 c0.08373216800000001,-0.293062588 0.08373216800000001,-0.586125176 0.05616182,-0.8934835000000001 a2.3996413999999997,2.3996413999999997 0 0 0 -1.019081752,-1.814537348 c-0.64330812,-0.47482266 -1.395876508,-0.6698573440000001 -2.177036368,-0.6841530800000001 c-1.5071790239999998,-0.027570348000000005 -3.0276326599999996,0 -4.53379056,0 c-0.43295657600000004,0 -0.864892028,0.027570348000000005 -1.3121443400000001,-0.04084496000000001 c-0.08373216800000001,-0.014295736000000002 -0.20422479999999998,-0.04084496000000001 -0.26549224,0.05616182 c-0.10211239999999999,0.181760072 -0.22464728,0.36249902 -0.26549224,0.57182944 c-0.014295736000000002,0.09802790400000003 0.014295736000000002,0.15316860000000002 0.125598252,0.16746433600000002 l0.962919932,0.139893988 c0.37781588000000005,0.05616182 0.64330812,0.26549224 0.6698573440000001,0.600420912 a5.902096719999999,5.902096719999999 0 0 1 0.04084496000000001,0.6974276920000001 l-0.027570348000000005,2.60897182 l-0.014295736000000002,5.162802944 c0,0.30633720000000003 -0.04084496000000001,0.600420912 -0.09802790400000003,0.906758112 a0.510562,0.510562 0 0 1 -0.36249902,0.41866084 c-0.278766852,0.08373216800000001 -0.544259092,0.16746433600000002 -0.83732168,0.16746433600000002 a0.3471821600000001,0.3471821600000001 0 0 0 -0.36249902,0.23690076799999998 c-0.05616182,0.125598252 -0.10211239999999999,0.26549224 -0.125598252,0.391090492 c-0.027570348000000005,0.16746433600000002 0.014295736000000002,0.22464728 0.181760072,0.20422479999999998 c0.125598252,-0.014295736000000002 4.730867492,0.09802790400000003 5.59575952,0.014295736000000002 c0.516688744,-0.05616182 1.021124,-0.125598252 1.534749372,-0.278766852 c0.87816664,-0.278766852 1.688939096,-0.6841530800000001 2.330204968,-1.36830616 c0.53098448,-0.558554828 0.83732168,-1.228412172 0.864892028,-2.009572032 c0.04084496000000001,-0.181760072 0.04084496000000001,-0.36249902 0.04084496000000001,-0.558554828 zm-6.7680098719999995,-5.7182943999999996 l0.04084496000000001,-1.1160885319999998 c0,-0.20933042 0.08373216800000001,-0.30633720000000003 0.293062588,-0.34922440800000004 c0.33492867200000004,-0.06943643200000002 0.6698573440000001,-0.04084496000000001 1.004786016,-0.027570348000000005 c0.33492867200000004,0.027570348000000005 0.6555616080000001,0.06943643200000002 0.99049028,0.16746433600000002 c0.6126744000000001,0.181760072 1.088518184,0.53098448 1.36830616,1.1160885319999998 a2.00140304,2.00140304 0 0 1 0.195034684,0.851617416 c0.014295736000000002,0.391090492 -0.014295736000000002,0.767885248 -0.16746433600000002,1.14365888 c-0.23690076799999998,0.516688744 -0.6126744000000001,0.851617416 -1.1579546159999998,0.94964532 s-2.0933041999999995,0.05616182 -2.330204968,0.05616182 c-0.20933042,0 -0.22464728,-0.027570348000000005 -0.22464728,-0.23690076799999998 V27.593058919999994 a8.975679959999999,8.975679959999999 0 0 1 -0.014295736000000002,-1.228412172 zm4.53379056,7.507303648 c-0.23690076799999998,0.62799126 -0.6698573440000001,1.06196896 -1.2835528680000001,1.29682748 c-0.33492867200000004,0.125598252 -0.6698573440000001,0.20422479999999998 -1.021124,0.181760072 c-0.43295657600000004,-0.014295736000000002 -0.864892028,0 -1.29682748,-0.08373216800000001 c-0.586125176,-0.125598252 -0.851617416,-0.6841530800000001 -0.8934835000000001,-1.088518184 c-0.06943643200000002,-0.7117234280000001 -0.027570348000000005,-1.4377425919999998 -0.04084496000000001,-1.9677059479999999 v-1.842107696 c0,-0.22464728 0.027570348000000005,-0.293062588 0.26549224,-0.293062588 l1.3121443400000001,0.014295736000000002 l0.8934835000000001,0.10211239999999999 c0.62799126,0.139893988 1.1998206999999999,0.37781588000000005 1.647073012,0.864892028 c0.36249902,0.391090492 0.558554828,0.864892028 0.600420912,1.381580772 c0.04084496000000001,0.488097272 0.014295736000000002,0.962919932 -0.16746433600000002,1.423446856 z" fill="#d5d5d5" stroke-width="0" id="svg_6"/><path d="M75.2203498,29.6557294 l0.36249902,0.05616182 c0.391090492,0.014295736000000002 0.851617416,-0.125598252 0.99049028,-0.6698573440000001 a1.40915112,1.40915112 0 0 0 0,-0.7964767199999999 c-0.08373216800000001,0 -0.125598252,0.06943643200000002 -0.16746433600000002,0.09802790400000003 c-0.20933042,0.16746433600000002 -0.446231188,0.26549224 -0.6974276920000001,0.293062588 c-0.502393008,0.05616182 -1.004786016,0.027570348000000005 -1.4928832879999998,-0.15316860000000002 l-0.6841530800000001,-0.23690076799999998 a4.0334398,4.0334398 0 0 0 -1.4806297999999998,-0.19401356000000003 c-0.7117234280000001,0.05616182 -1.381580772,0.293062588 -2.009572032,0.62799126 c-0.6698573440000001,0.36249902 -1.14365888,0.906758112 -1.36830616,1.647073012 c-0.125598252,0.43295657600000004 -0.139893988,0.87816664 -0.08373216800000001,1.325418952 c0.139893988,1.019081752 0.6698573440000001,1.7308051800000002 1.6184815399999999,2.1075999359999997 c0.05616182,0.014295736000000002 0.09802790400000003,0.04084496000000001 0.15316860000000002,0.05616182 c0.125598252,0.06943643200000002 0.139893988,0.139893988 0.027570348000000005,0.23690076799999998 l-0.34922440800000004,0.23690076799999998 l-0.83732168,0.516688744 c-0.20933042,0.125598252 -0.23690076799999998,0.22464728 -0.16746433600000002,0.446231188 a1.46020732,1.46020732 0 0 0 0.446231188,0.6698573440000001 a2.32816272,2.32816272 0 0 0 0.642286996,0.391090492 c0.15316860000000002,0.06943643200000002 0.15316860000000002,0.10211239999999999 0.014295736000000002,0.22464728 l-0.7964767199999999,0.57182944 c-0.26549224,0.20422479999999998 -0.53098448,0.40844959999999997 -0.753589512,0.6698573440000001 a1.3785174,1.3785174 0 0 0 -0.33492867200000004,1.2559825199999999 a2.35879644,2.35879644 0 0 0 0.72499804,1.2559825199999999 a2.9612595999999995,2.9612595999999995 0 0 0 1.2835528680000001,0.6974276920000001 c0.78115986,0.22464728 1.5909111919999999,0.23690076799999998 2.386366788,0.08373216800000001 c1.14365888,-0.20933042 2.1443604,-0.7147868 2.93062588,-1.5766154559999999 c0.544259092,-0.57182944 0.864892028,-1.2416867839999999 0.8934835000000001,-2.042248 a1.9605580799999998,1.9605580799999998 0 0 0 -1.5071790239999998,-2.03714238 l-0.753589512,-0.139893988 l-2.3026346199999996,-0.20422479999999998 c-0.251196504,-0.014295736000000002 -0.502393008,-0.05616182 -0.7117234280000001,-0.181760072 c-0.26549224,-0.16746433600000002 -0.33492867200000004,-0.488097272 -0.16746433600000002,-0.6974276920000001 c0.125598252,-0.15316860000000002 0.278766852,-0.251196504 0.47482266,-0.26549224 l0.446231188,-0.04084496000000001 a4.043651039999999,4.043651039999999 0 0 0 2.357775316,-1.074222448 a2.47112008,2.47112008 0 0 0 0.7117234280000001,-1.1865460879999998 c0.16746433600000002,-0.600420912 0.16746433600000002,-1.2253488 0.027570348000000005,-1.8380231999999999 c-0.04084496000000001,-0.15316860000000002 -0.027570348000000005,-0.16746433600000002 0.16746433600000002,-0.139893988 zm-3.4207653999999996,6.950791068 c0.08373216800000001,0.014295736000000002 0.16746433600000002,0 0.251196504,0 c0.586125176,0.027570348000000005 1.1865460879999998,0.06943643200000002 1.7583755279999997,0.22464728 a3.6556239199999996,3.6556239199999996 0 0 1 0.544259092,0.20933042 c0.558554828,0.30633720000000003 0.767885248,0.83732168 0.6974276920000001,1.40915112 c-0.08373216800000001,0.62799126 -0.43295657600000004,1.074222448 -0.977215668,1.36830616 c-0.36249902,0.20422479999999998 -0.767885248,0.293062588 -1.1865460879999998,0.33492867200000004 c-0.15316860000000002,0.014295736000000002 -0.293062588,0 -0.446231188,0 c-0.488097272,0.014295736000000002 -0.962919932,-0.04084496000000001 -1.423446856,-0.23690076799999998 c-0.32063293600000004,-0.125598252 -0.586125176,-0.30633720000000003 -0.823025944,-0.558554828 c-0.488097272,-0.488097272 -0.7147868,-1.381580772 0.014295736000000002,-2.1075999359999997 c0.446231188,-0.40844959999999997 0.94964532,-0.6974276920000001 1.5909111919999999,-0.64330812 zm1.5909111919999999,-4.354072736 c-0.293062588,0.739293776 -0.935349584,0.962919932 -1.5766154559999999,0.864892028 c-0.586125176,-0.08373216800000001 -1.019081752,-0.40436510400000003 -1.29682748,-0.935349584 c-0.36249902,-0.7117234280000001 -0.45950579999999996,-1.4499960799999998 -0.251196504,-2.218902452 c0.15316860000000002,-0.57182944 0.502393008,-1.004786016 1.1160885319999998,-1.10281392 c0.78115986,-0.139893988 1.5316859999999999,0.139893988 1.925839864,0.921053848 c0.20422479999999998,0.37781588000000005 0.293062588,0.83732168 0.293062588,1.4928832879999998 c-0.014295736000000002,0.26549224 -0.06943643200000002,0.62799126 -0.20933042,0.977215668 zm-17.581713032,-0.94964532 c-0.125598252,-0.753589512 -0.40436510400000003,-1.4377425919999998 -0.921053848,-2.009572032 c-0.767885248,-0.851617416 -1.744079792,-1.2253488 -2.846893712,-1.228412172 c-0.962919932,-0.014295736000000002 -1.8686569199999998,0.26549224 -2.679429376,0.767885248 a3.63520144,3.63520144 0 0 0 -1.632777276,2.135170284 c-0.23690076799999998,0.8097513319999999 -0.22464728,1.6337983999999999 -0.04084496000000001,2.45580322 c0.488097272,2.20562784 2.191332104,3.1532309119999997 4.227453359999999,3.0143580479999996 c0.600420912,-0.04084496000000001 1.172250352,-0.23690076799999998 1.71548832,-0.502393008 c0.8097513319999999,-0.37781588000000005 1.395876508,-0.977215668 1.800241612,-1.772671264 c0.32063293600000004,-0.6555616080000001 0.45950579999999996,-1.354010424 0.446231188,-2.1494660199999998 l-0.06943643200000002,-0.7117234280000001 zM53.82780199999999,34.400892628 a1.69506584,1.69506584 0 0 1 -1.4377425919999998,1.172250352 c-0.6126744000000001,0.08373216800000001 -1.1865460879999998,-0.06943643200000002 -1.7022137080000002,-0.43295657600000004 a2.8999921599999996,2.8999921599999996 0 0 1 -0.879187764,-1.0466520999999998 c-0.57182944,-1.172250352 -0.6698573440000001,-2.3996413999999997 -0.37781588000000005,-3.6556239199999996 a2.0933041999999995,2.0933041999999995 0 0 1 0.586125176,-1.019081752 c0.516688744,-0.47482266 1.1160885319999998,-0.586125176 1.7869669999999998,-0.446231188 c0.64330812,0.139893988 1.1303842679999998,0.488097272 1.5316859999999999,1.019081752 s0.586125176,1.14365888 0.6974276920000001,1.7869669999999998 c0.05616182,0.32063293600000004 0.05616182,0.6555616080000001 0.06943643200000002,0.864892028 c0,0.6698573440000001 -0.05616182,1.2253488 -0.26549224,1.7583755279999997 zm32.4717432,-2.9857665759999996 c-0.10211239999999999,-0.8097513319999999 -0.40436510400000003,-1.5490451079999998 -0.977215668,-2.1627406319999998 c-0.753589512,-0.823025944 -1.7308051800000002,-1.172250352 -2.81830224,-1.1865460879999998 c-0.935349584,-0.014295736000000002 -1.800241612,0.251196504 -2.595697208,0.7117234280000001 c-0.8934835000000001,0.53098448 -1.5071790239999998,1.2835528680000001 -1.744079792,2.3026346199999996 a4.870761479999999,4.870761479999999 0 0 0 0.33492867200000004,3.3206952479999994 c0.45950579999999996,0.977215668 1.2416867839999999,1.6052069279999999 2.275064272,1.88397378 c1.14365888,0.30633720000000003 2.233198188,0.16746433600000002 3.2931249,-0.34922440800000004 c0.921053848,-0.446231188 1.5766154559999999,-1.14365888 1.9534102119999999,-2.0933041999999995 c0.22464728,-0.558554828 0.30633720000000003,-1.1579546159999998 0.32063293600000004,-1.856403432 c0.014295736000000002,-0.125598252 -0.014295736000000002,-0.34922440800000004 -0.04084496000000001,-0.57182944 zm-1.925839864,2.8050276279999995 c-0.22464728,0.753589512 -0.6974276920000001,1.2416867839999999 -1.4928832879999998,1.354010424 c-0.586125176,0.08373216800000001 -1.14365888,-0.05616182 -1.647073012,-0.391090492 c-0.43295657600000004,-0.293062588 -0.739293776,-0.6841530800000001 -0.962919932,-1.14365888 c-0.251196504,-0.488097272 -0.391090492,-1.004786016 -0.446231188,-1.534749372 c-0.08373216800000001,-0.6555616080000001 -0.08373216800000001,-1.29682748 0.06943643200000002,-1.9534102119999999 a1.9911918,1.9911918 0 0 1 0.125598252,-0.376794756 c0.391090492,-0.977215668 1.2559825199999999,-1.423446856 2.275064272,-1.1998206999999999 c0.6841530800000001,0.15316860000000002 1.1998206999999999,0.53098448 1.5909111919999999,1.10281392 c0.37781588000000005,0.558554828 0.558554828,1.172250352 0.64330812,1.8380231999999999 c0.04084496000000001,0.26549224 0.05616182,0.544259092 0.04084496000000001,0.78115986 c0,0.544259092 -0.04084496000000001,1.0466520999999998 -0.20422479999999998,1.534749372 z" fill="#d5d5d5" stroke-width="0" id="svg_7"/></g></g></svg>