<svg xmlns="http://www.w3.org/2000/svg" width="512" height="145" preserveAspectRatio="xMinYMin meet" style=""><rect id="backgroundrect" width="100%" height="100%" x="0" y="0" fill="none" stroke="none"/><g class="currentLayer" style=""><title>Layer 1</title><g fill="#83CD29" id="svg_1"><path d="M471.05 51.611c-1.244 0-2.454.257-3.525.863l-33.888 19.57c-2.193 1.264-3.526 3.65-3.526 6.189v39.069c0 2.537 1.333 4.92 3.526 6.187l8.85 5.109c4.3 2.119 5.885 2.086 7.842 2.086 6.366 0 10.001-3.863 10.001-10.576V81.542c0-.545-.472-.935-1.007-.935h-4.245c-.544 0-1.007.39-1.007.935v38.566c0 2.975-3.1 5.968-8.13 3.453l-9.21-5.396c-.326-.177-.576-.49-.576-.863v-39.07c0-.37.247-.747.576-.935L470.547 57.8a.998.998 0 0 1 1.007 0l33.817 19.498c.322.194.576.553.576.936v39.069c0 .373-.188.755-.504.935l-33.889 19.498c-.29.173-.69.173-1.007 0l-8.706-5.18a.905.905 0 0 0-.863 0c-2.403 1.362-2.855 1.52-5.109 2.302-.555.194-1.398.495.288 1.44l11.368 6.69a6.995 6.995 0 0 0 3.526.936 6.949 6.949 0 0 0 3.525-.935l33.889-19.499c2.193-1.275 3.525-3.65 3.525-6.187v-39.07c0-2.538-1.332-4.92-3.525-6.187l-33.889-19.57c-1.062-.607-2.28-.864-3.525-.864z" id="svg_2"/><path d="M480.116 79.528c-9.65 0-15.397 4.107-15.397 10.937 0 7.408 5.704 9.444 14.966 10.36 11.08 1.085 11.943 2.712 11.943 4.893 0 3.783-3.016 5.396-10.144 5.396-8.957 0-10.925-2.236-11.584-6.691-.078-.478-.447-.864-.936-.864h-4.389c-.54 0-1.007.466-1.007 1.008 0 5.703 3.102 12.447 17.916 12.447 10.723 0 16.908-4.209 16.908-11.584 0-7.31-4.996-9.273-15.398-10.648-10.51-1.391-11.512-2.072-11.512-4.533 0-2.032.85-4.75 8.634-4.75 6.954 0 9.524 1.5 10.577 6.189.092.44.48.791.935.791h4.39c.27 0 .532-.166.719-.36.184-.207.314-.44.288-.719-.68-8.074-6.064-11.872-16.909-11.872z" id="svg_3"/></g><path d="M271.821,1.3538738327026367 a2.181,2.181 0 0 0 -1.08,0.28700000000000003 a2.18,2.18 0 0 0 -1.079,1.871 v55.042 c0,0.54 -0.251,1.024 -0.7190000000000001,1.295 a1.501,1.501 0 0 1 -1.5110000000000001,0 l-8.994,-5.18 a4.3100000000000005,4.3100000000000005 0 0 0 -4.317,0 l-35.903,20.721 c-1.342,0.775 -2.158,2.2640000000000002 -2.158,3.814 v41.443 c0,1.548 0.8170000000000001,2.966 2.158,3.741 l35.903,20.722 a4.3,4.3 0 0 0 4.317,0 l35.903,-20.722 a4.308,4.308 0 0 0 2.159,-3.741 V17.32687383270264 a4.386,4.386 0 0 0 -2.23,-3.814 L272.9,1.5688738327026368 c-0.3350000000000001,-0.18700000000000003 -0.7070000000000001,-0.22000000000000003 -1.079,-0.21500000000000002 zM40.861,53.08587383270264 c-0.6840000000000002,0.027000000000000007 -1.328,0.14700000000000002 -1.9420000000000002,0.503 L3.015,74.31087383270264 a4.3,4.3 0 0 0 -2.158,3.741 L0.929,133.67087383270263 c0,0.773 0.3990000000000001,1.492 1.079,1.87 a2.096,2.096 0 0 0 2.159,0 l21.297,-12.231 c1.3490000000000002,-0.802 2.23,-2.196 2.23,-3.742 V93.59387383270264 c0,-1.55 0.8150000000000001,-2.972 2.159,-3.742 l9.065,-5.252 a4.251,4.251 0 0 1 2.159,-0.5760000000000001 c0.7400000000000001,0 1.5,0.18500000000000003 2.158,0.5760000000000001 l9.066,5.252 a4.296,4.296 0 0 1 2.159,3.742 v25.973 c0,1.546 0.8900000000000001,2.95 2.23,3.742 l21.297,12.232 a2.096,2.096 0 0 0 2.159,0 a2.164,2.164 0 0 0 1.08,-1.871 l0.07,-55.618 a4.28,4.28 0 0 0 -2.158,-3.741 L43.235,53.58887383270264 c-0.6070000000000001,-0.35600000000000004 -1.2530000000000001,-0.47500000000000003 -1.9420000000000002,-0.503 h-0.43200000000000005 zm322.624,0.503 c-0.7500000000000001,0 -1.485,0.19000000000000003 -2.158,0.5760000000000001 l-35.903,20.722 a4.306,4.306 0 0 0 -2.159,3.741 V120.07087383270263 c0,1.5590000000000002 0.8780000000000001,2.971 2.23,3.742 l35.616,20.29 c1.315,0.7500000000000001 2.9210000000000003,0.807 4.245,0.07 l21.585,-12.015 c0.6850000000000002,-0.38000000000000006 1.1480000000000001,-1.09 1.151,-1.87 a2.126,2.126 0 0 0 -1.079,-1.871 l-36.119,-20.722 c-0.6760000000000002,-0.38600000000000007 -1.151,-1.167 -1.151,-1.943 v-12.95 c0,-0.775 0.48000000000000004,-1.485 1.151,-1.871 l11.224,-6.476 a2.1550000000000002,2.1550000000000002 0 0 1 2.159,0 L375.5,90.93087383270263 a2.152,2.152 0 0 1 1.08,1.87 v10.217 a2.15,2.15 0 0 0 1.079,1.87 c0.6730000000000002,0.38900000000000007 1.487,0.39000000000000007 2.158,0 L401.331,92.37087383270264 a4.325,4.325 0 0 0 2.159,-3.742 v-10 c0,-1.545 -0.8200000000000001,-2.966 -2.159,-3.742 l-35.687,-20.722 a4.279,4.279 0 0 0 -2.159,-0.5750000000000001 zm-107.35,30.939 c0.18800000000000003,0 0.40800000000000003,0.04600000000000001 0.5760000000000001,0.14300000000000002 l12.304,7.123 c0.3340000000000001,0.19300000000000003 0.5760000000000001,0.55 0.5760000000000001,0.935 v14.246 c0,0.38700000000000007 -0.24000000000000002,0.7430000000000001 -0.5760000000000001,0.936 l-12.304,7.123 a1.088,1.088 0 0 1 -1.079,0 l-12.303,-7.123 c-0.3350000000000001,-0.19400000000000003 -0.5760000000000001,-0.549 -0.5760000000000001,-0.936 V92.72887383270263 c0,-0.38600000000000007 0.24200000000000002,-0.7400000000000001 0.5760000000000001,-0.935 l12.303,-7.122 a0.9480000000000001,0.9480000000000001 0 0 1 0.504,-0.14300000000000002 v-0.0010000000000000002 z" fill="#d5d5d5" id="svg_4" class="" fill-opacity="1"/><path d="M148.714 52.402c-.748 0-1.488.19-2.158.576l-35.903 20.65c-1.343.773-2.159 2.265-2.159 3.813v41.443c0 1.55.817 2.966 2.159 3.742l35.903 20.721a4.297 4.297 0 0 0 4.317 0l35.903-20.721a4.308 4.308 0 0 0 2.158-3.742V77.441c0-1.55-.816-3.04-2.158-3.813l-35.903-20.65a4.297 4.297 0 0 0-2.159-.576zM363.413 89.385c-.143 0-.302 0-.431.072l-6.907 4.029a.84.84 0 0 0-.432.72v7.914c0 .298.172.571.432.72l6.907 3.957c.259.15.535.15.791 0l6.907-3.958a.846.846 0 0 0 .432-.719v-7.915a.846.846 0 0 0-.432-.719l-6.907-4.03c-.128-.075-.216-.07-.36-.07z" fill="#83CD29" id="svg_5"/></g></svg>