<svg width="38" height="36" viewBox="0 0 38 36" fill="none" xmlns="http://www.w3.org/2000/svg">
<path d="M36.1372 14.2054C36.0089 14.0355 35.8731 13.8655 35.7448 13.6956L35.7372 13.6882C35.4277 13.2891 35.1183 12.8975 34.8013 12.5132L34.7862 12.5428L32.7709 10.119C29.7669 6.8898 26.476 3.93399 22.9361 1.27376C21.7813 0.549587 20.4 0.1875 19.0188 0.1875C17.6375 0.1875 16.2563 0.549587 15.1014 1.27376C11.6898 3.83793 8.50463 6.67551 5.59117 9.77172L5.57608 9.7865L5.25907 10.119C5.25907 10.1264 5.26661 10.1338 5.26661 10.1412L3.23625 12.528C3.23625 12.5206 3.2287 12.5206 3.2287 12.5132L2.91924 12.8975C2.57204 13.3261 2.23239 13.7621 1.89273 14.2054C0.41336 16.4592 0.41336 19.622 1.89273 21.8758C5.70439 26.7307 10.1425 31.0757 15.1014 34.8075C17.4035 36.2558 20.634 36.2558 22.9361 34.8075C27.895 31.0757 32.3331 26.7307 36.1448 21.8758C37.6242 19.622 37.6242 16.4592 36.1372 14.2054Z" fill="#1B1B1B"/>
<path d="M15.4402 2.72415C12.2022 5.14792 9.19062 7.85987 6.45076 10.8083C7.198 12.2345 7.56784 12.9365 8.28488 14.3405C8.29243 14.3553 8.30753 14.3701 8.31508 14.3848C9.89257 17.4737 11.4399 20.5773 12.9947 23.6809C13.5835 24.8632 14.3382 25.5578 15.0175 25.5504C15.6214 25.543 16.2931 24.9962 16.8668 24.0356C17.4102 25.0849 17.6819 25.6021 18.2254 26.6515C17.3347 27.7082 16.195 28.1885 14.9798 28.2033C12.9117 28.2106 11.3418 26.6588 10.5417 24.9223C8.57925 20.9393 6.61681 16.9564 4.60154 12.9956C4.19396 13.4981 3.78638 14.0154 3.38634 14.54C2.03528 16.5943 2.03528 19.491 3.38634 21.5453C6.86589 25.979 10.9266 29.9546 15.4553 33.3611C17.5612 34.6839 20.5124 34.6839 22.6107 33.3611C27.1394 29.9546 31.2001 25.979 34.6796 21.5453C36.0307 19.4836 36.0307 16.5943 34.6796 14.54C34.2796 14.0154 33.872 13.4981 33.4644 12.9882C31.4416 16.949 29.4792 20.932 27.5168 24.9149C26.7167 26.6588 25.1392 28.2033 23.0786 28.1959C21.3049 28.122 19.8255 26.9988 18.9575 25.5356C18.9575 25.543 18.95 25.543 18.95 25.5504C18.3763 24.4494 18.0895 23.9025 17.5234 22.8089C17.5234 22.8089 17.5234 22.8089 17.5234 22.8015C17.3951 22.5503 17.3347 22.432 17.2064 22.1808C17.1913 22.166 17.1838 22.1512 17.1687 22.1291L16.897 21.6118C15.9912 19.8383 15.093 18.0648 14.1873 16.2913C13.6514 15.4268 13.3646 14.4292 13.357 13.4168C13.357 13.3872 13.357 13.3577 13.357 13.3281C13.3797 10.2984 15.9686 7.9116 19.0254 7.9116C22.1276 7.9116 24.7241 10.3428 24.6939 13.4168C24.6939 13.4464 24.6939 13.4685 24.6939 13.4981C24.6712 14.4439 24.407 15.3676 23.924 16.1879C22.9881 17.9466 22.0521 19.7053 21.1162 21.464C20.5275 20.3334 20.2331 19.7644 19.6519 18.6338C20.3991 17.1707 20.7765 16.4317 21.5313 14.9686C21.5464 14.9464 21.5615 14.9169 21.5691 14.8947C21.8332 14.4513 21.9691 13.9562 21.9766 13.439C21.9766 13.4168 21.9766 13.402 21.9766 13.3799C21.954 11.8207 20.6331 10.5571 19.0179 10.5571C17.3951 10.5423 16.0742 11.8207 16.0591 13.4094C16.0591 13.4168 16.0591 13.4242 16.0591 13.439C16.0591 13.4611 16.0591 13.4833 16.0591 13.4981C16.0742 14.0154 16.2252 14.5178 16.5045 14.9538C16.5271 14.9908 16.5498 15.0277 16.5649 15.0573C17.1611 16.21 17.4555 16.7864 18.0442 17.9466L18.0291 17.954C18.8443 19.5279 19.6595 21.0945 20.4746 22.6685C20.4746 22.6759 20.4746 22.6759 20.4671 22.6759C20.6709 23.0749 20.769 23.267 20.9728 23.6661C20.9803 23.6735 20.9879 23.6883 20.9879 23.6956C21.5917 24.8484 22.354 25.5356 23.0182 25.543C23.6975 25.5504 24.4523 24.8558 25.0411 23.6809C27.1922 19.3802 29.3509 15.0721 31.585 10.8083C28.8452 7.85987 25.8336 5.15531 22.5956 2.72415C21.5464 2.05909 20.2784 1.72656 19.0179 1.72656C17.7574 1.72656 16.4894 2.05909 15.4402 2.72415Z" fill="url(#paint0_linear_17741_20395)"/>
<defs>
<linearGradient id="paint0_linear_17741_20395" x1="2.37305" y1="18.3261" x2="35.6929" y2="18.3261" gradientUnits="userSpaceOnUse">
<stop stop-color="#ffffff"/>
<stop offset="1" stop-color="#ffffff"/>
</linearGradient>
</defs>
</svg>
